<svg xmlns="http://www.w3.org/2000/svg" viewBox="11 9 44 44" fill="none" aria-hidden="true">
  <defs>
    <linearGradient id="tm-brand" x1="18" y1="54" x2="46" y2="10" gradientUnits="userSpaceOnUse">
      <stop offset="0%" stop-color="#4a2b75"/>
      <stop offset="55%" stop-color="#6d3fd4"/>
      <stop offset="100%" stop-color="#a78bfa"/>
    </linearGradient>
  </defs>
  <path
    fill="url(#tm-brand)"
    d="M15 13h15.5c.8 0 1.5.7 1.5 1.5V18h-4.5v31.5c0 .8-.7 1.5-1.5 1.5h-5c-.8 0-1.5-.7-1.5-1.5V18H15v-3.5C15 13.7 15.7 13 16.5 13H15Zm11 0h18.8c4.8 0 8.7 3.9 8.7 8.7 0 4.1-2.8 7.5-6.6 8.4l4.9 14.4c.3.8-.3 1.7-1.2 1.7h-5.8c-.6 0-1.1-.4-1.3-.9L38.8 32.2H30.5v17.3c0 .8-.7 1.5-1.5 1.5h-5c-.8 0-1.5-.7-1.5-1.5V13Z"
  />
  <path
    d="M47.2 17.2 48.3 19.9 51 21 48.3 22.1 47.2 24.8 46.1 22.1 43.4 21 46.1 19.9 47.2 17.2Z"
    fill="#fbbf24"
  />
</svg>
